<svg width="24" height="24" viewBox="0 0 24 24" fill="none" xmlns="http://www.w3.org/2000/svg">
<path d="M11.56 8.86999V17H20.32C22.17 16.87 23 15.73 23 14.33C23 12.85 21.88 11.66 20.38 11.66C20 11.66 19.68 11.74 19.35 11.88C19.11 9.53999 17.12 7.70999 14.67 7.70999C13.5 7.70999 12.39 8.14999 11.56 8.86999ZM10.68 9.88999C10.38 9.70999 10.06 9.56999 9.71 9.49999V17H11.1V9.33999C10.95 9.49999 10.81 9.69999 10.68 9.88999ZM8.33 9.34999V17H9.25V9.37999C9.06 9.34999 8.87 9.33999 8.67 9.33999C8.55 9.33999 8.44 9.33999 8.33 9.34999ZM6.5 9.99999V17H7.41V9.53999C7.08 9.64999 6.77 9.80999 6.5 9.99999ZM4.83 12.5C4.77 12.5 4.71 12.44 4.64 12.41V17H5.56V10.86C5.19 11.34 4.94 11.91 4.83 12.5ZM2.79 12.22V16.91C3 16.97 3.24 17 3.5 17H3.72V12.14C3.64 12.13 3.56 12.12 3.5 12.12C3.24 12.12 3 12.16 2.79 12.22ZM1 14.56C1 15.31 1.34 15.97 1.87 16.42V12.71C1.34 13.15 1 13.82 1 14.56Z" fill="white"/>
</svg>
